<svg version="1.1" xmlns="http://www.w3.org/2000/svg" viewBox="0 0 837.1783357161517 743.7440932513654" width="637.1783357161517" height="243.7440932513654">
  <!-- svg-source:excalidraw -->
  
  <defs>
    <style class="style-fonts">
      
    </style>
    
  </defs>
  <rect x="0" y="0" width="837.1783357161517" height="743.7440932513654" fill="#f5faff"></rect><g stroke-linecap="round"><g transform="translate(375.87568821157356 281.72643840202306) rotate(268.61967457585087 9.245146958214491 374.8304665370066)"><path d="M-0.36 -0.63 C2.98 62.59, 17.07 254.52, 18.94 379.56 C20.81 504.59, 12.35 687.76, 10.85 749.58 M1.66 1.65 C4.98 64.99, 16.75 255.8, 18.23 380.67 C19.71 505.53, 11.91 689.58, 10.56 750.85" stroke="#1e1e1e" stroke-width="2" fill="none"></path></g><g transform="translate(375.87568821157356 281.72643840202306) rotate(268.61967457585087 9.245146958214491 374.8304665370066)"><path d="M2.73 727.11 C3.36 732.85, 4.69 738.58, 10.56 750.85 M2.73 727.11 C4.46 733.24, 6.74 740.02, 10.56 750.85" stroke="#1e1e1e" stroke-width="2" fill="none"></path></g><g transform="translate(375.87568821157356 281.72643840202306) rotate(268.61967457585087 9.245146958214491 374.8304665370066)"><path d="M19.82 727.63 C16.88 733.21, 14.64 738.83, 10.56 750.85 M19.82 727.63 C16.55 733.72, 13.82 740.35, 10.56 750.85" stroke="#1e1e1e" stroke-width="2" fill="none"></path></g></g><mask></mask><g stroke-linecap="round"><g transform="translate(136.8255433123718 10.933484824607149) rotate(0 9.245146958214491 360.56073137036856)"><path d="M0.48 0.07 C3.63 120.23, 14.8 600.88, 17.81 721.22 M-0.73 -0.93 C2.9 119.42, 17.08 602.61, 20.16 722.81" stroke="#1e1e1e" stroke-width="4" fill="none"></path></g></g><mask></mask><g stroke-linecap="round"><g transform="translate(144.74995499084162 570.9252434364616) rotate(0 -31.697646713878385 48.8672053505627)"><path d="M0.97 -0.35 C-9.6 15.97, -52.04 81.22, -62.96 97.57 M0.02 -1.58 C-10.71 14.97, -53.29 82.25, -63.67 99.02" stroke="#1e1e1e" stroke-width="4" fill="none"></path></g></g><mask></mask><g stroke-linecap="round"><g transform="translate(441.53578643386936 -301.07334514765614) rotate(268.61967457585087 9.245146958214491 374.8304665370066)"><path d="M0.59 1.01 C3.98 64.33, 17.94 254.89, 19.59 379.71 C21.24 504.52, 12.21 688.29, 10.48 749.91 M-0.56 0.5 C2.84 63.97, 17.46 255.75, 19.22 380.89 C20.98 506.04, 11.69 689.77, 10 751.36" stroke="#1e1e1e" stroke-width="2" fill="none"></path></g><g transform="translate(441.53578643386936 -301.07334514765614) rotate(268.61967457585087 9.245146958214491 374.8304665370066)"><path d="M2.32 727.56 C5.79 735, 4.82 739.71, 10 751.36 M2.32 727.56 C3.9 735.57, 6.64 743.42, 10 751.36" stroke="#1e1e1e" stroke-width="2" fill="none"></path></g><g transform="translate(441.53578643386936 -301.07334514765614) rotate(268.61967457585087 9.245146958214491 374.8304665370066)"><path d="M19.41 728.19 C18.83 735.56, 13.81 740.13, 10 751.36 M19.41 728.19 C15.51 735.96, 12.78 743.61, 10 751.36" stroke="#1e1e1e" stroke-width="2" fill="none"></path></g></g><mask></mask><g stroke-linecap="round"><g transform="translate(155.31583722880123 211.68524734583798) rotate(0 40.9427936720931 -63.39529342775708)"><path d="M-0.65 0.26 C13.04 -20.64, 67.55 -105.45, 81.31 -126.58 M1.2 -0.64 C15.37 -21.84, 70.39 -107.86, 83.72 -128.6" stroke="#1e1e1e" stroke-width="4" fill="none"></path></g></g><mask></mask><g stroke-linecap="round" transform="translate(517.1973038789147 293.5708346900243) rotate(0 47.546470070817804 51.50867591005266)"><path d="M36.38 0.8 C43.47 -2.06, 53.21 -1, 60.6 1.33 C68 3.65, 75.15 8.63, 80.75 14.75 C86.34 20.88, 92.12 29.75, 94.18 38.09 C96.25 46.42, 95.37 56.26, 93.13 64.74 C90.9 73.21, 86.55 82.66, 80.77 88.94 C74.99 95.22, 66.24 100.44, 58.46 102.41 C50.68 104.38, 41.53 103.3, 34.08 100.75 C26.64 98.2, 19.22 93.07, 13.77 87.11 C8.31 81.14, 3.29 73.17, 1.34 64.94 C-0.6 56.71, -0.2 46.2, 2.1 37.73 C4.41 29.27, 8.53 20.48, 15.17 14.13 C21.81 7.77, 36.77 1.93, 41.95 -0.38 C47.14 -2.69, 46.31 -0.82, 46.29 0.24 M40.19 1.57 C47.48 -0.31, 58.01 1.65, 65.59 4.59 C73.17 7.53, 80.67 12.66, 85.67 19.21 C90.67 25.76, 94.59 35.22, 95.57 43.89 C96.56 52.56, 94.85 63.27, 91.58 71.24 C88.31 79.22, 82.08 86.37, 75.95 91.72 C69.83 97.07, 62.6 101.93, 54.83 103.33 C47.05 104.72, 36.78 103.36, 29.31 100.07 C21.83 96.78, 14.65 90.47, 9.97 83.6 C5.29 76.72, 2.21 67.48, 1.22 58.83 C0.22 50.18, 1 39.46, 4.01 31.71 C7.01 23.96, 13.23 17.63, 19.25 12.34 C25.28 7.04, 36.36 1.62, 40.16 -0.09 C43.97 -1.8, 41.72 1.18, 42.08 2.08" stroke="#1e1e1e" stroke-width="4" fill="none"></path></g><g stroke-linecap="round"><g transform="translate(564.7437739497323 407.154068748089) rotate(0 -10.565882237959386 48.86720535056281)"><path d="M0.16 0.62 C-3.45 16.89, -17.89 81.69, -21.56 97.79 M-1.21 -0.1 C-5.03 16.37, -19.71 82.97, -22.73 99.36" stroke="#1e1e1e" stroke-width="4" fill="none"></path></g></g><mask></mask><g stroke-linecap="round"><g transform="translate(575.3096561876919 412.4370098670688) rotate(0 31.697646713878612 42.26352895183811)"><path d="M0.44 0.28 C10.93 14.23, 53.22 69.94, 63.84 84.07 M-0.79 -0.62 C9.5 13.47, 52.36 71.43, 63.12 85.36" stroke="#1e1e1e" stroke-width="4" fill="none"></path></g></g><mask></mask><g stroke-linecap="round"><g transform="translate(585.8755384256515 560.3593611985021) rotate(0 -21.131764475919 34.33911727336846)"><path d="M-0.48 -0.95 C-7.54 10.41, -36.33 56.05, -43.14 67.64 M1.47 1.17 C-5.15 12.68, -33.71 57.18, -40.88 68.63" stroke="#1e1e1e" stroke-width="4" fill="none"></path></g></g><mask></mask><g stroke-linecap="round"><g transform="translate(596.4414206636111 563.0008317579919) rotate(0 22.452499755663894 34.33911727336846)"><path d="M0.83 -0.82 C8.52 10.5, 38.12 56.06, 45.47 67.75 M-0.19 1.36 C7.44 12.83, 37.42 57.8, 44.82 68.81" stroke="#1e1e1e" stroke-width="4" fill="none"></path></g></g><mask></mask><g stroke-linecap="round"><g transform="translate(570.0267150687127 407.1540687480891) rotate(0 13.207352797449403 76.60264622520651)"><path d="M0.32 -1.03 C4.67 24.42, 21.12 126.78, 25.58 152.67 M-0.97 1.04 C3.8 26.66, 23.24 128.68, 27.85 153.93" stroke="#1e1e1e" stroke-width="4" fill="none"></path></g></g><mask></mask></svg>